<?xml version="1.0" encoding="utf-8"?>
<!-- Generator: Adobe Illustrator 23.0.3, SVG Export Plug-In . SVG Version: 6.00 Build 0)  -->
<svg version="1.1" id="Layer_1" xmlns="http://www.w3.org/2000/svg" xmlns:xlink="http://www.w3.org/1999/xlink" x="0px" y="0px"
	 viewBox="0 0 512 512" style="enable-background:new 0 0 512 512;" xml:space="preserve">
<style type="text/css">
	.st0{fill:#1783FA;}
	.st1{fill:#FFFFFF;}
</style>
<g>
	<path class="st0" d="M145.3,0h221.3c30,0.8,59.6,10.8,83.8,28.5c25,18.1,44.1,44.1,53.9,73.4c4.8,14,7.1,28.7,7.7,43.4v221.4
		c-0.9,35-14.5,69.4-37.9,95.4c-22,24.8-52.4,41.9-85,47.6c-7.1,1.3-14.3,1.9-21.5,2.3H144.5c-28.3-1-56.2-10-79.5-26.1
		c-25-17.1-44.7-42-55.4-70.4c-6-15.6-9-32.2-9.6-48.9V144.4c0.7-15,3.2-29.9,8.2-44.1c10.3-29.8,30.3-56,56.2-73.9
		C88,10,116.5,0.8,145.3,0"/>
	<path class="st0" d="M256.1,307.1c0.7-2.5-1.3-7,2-7.9c4.1,0.1,2,5.5,2.5,8.1c3.7,0.7,8.3,1,10.7,4.2c1.4,2.7-0.6,5.3-3.3,5.9
		c-4-1.5-8.5-3.8-12.8-2.1c-2.4,0.8-3.8,4.3-1.9,6.2c1.9,2.2,5.1,2.3,7.8,2.8c3.9,0.6,8.2,1.6,10.8,4.8c3.7,5,3.1,12.9-1.9,16.8
		c-2.6,2.4-6.2,2.9-9.5,3.6c0,2.5,0.1,5-0.1,7.6c-0.3,2.2-4.1,2-4.2-0.2c-0.3-2.4-0.1-4.8,0-7.2c-4.1-0.8-8.4-1.5-11.7-4.2
		c-2.6-2.1-1.1-7.3,2.5-6.9c3.2,0.4,5.7,3,8.9,3.1c2.9,0.2,6.7,0.6,8.6-2.2c2.1-2.3,0.5-6-2.4-6.6c-4.5-1.3-9.5-1-13.5-3.6
		c-6.8-4.1-6.5-15.4,0.1-19.6C251,308.3,253.6,307.9,256.1,307.1z"/>
</g>
<g>
	<path class="st1" d="M257.3,59.7c27.2-11.7,58.4-12.5,86.6-4.3c51.3,15.3,89.2,67.8,86.5,121.8c24.7,9.4,45.3,29.3,55.9,53.7
		c11.7,26.3,11.1,57.8-1.4,83.7c-15.5,33.8-50.8,57.6-88,57.9c-15.9-0.1-31.8,0.3-47.7-0.2c-0.3-0.4-1-1.1-1.3-1.5
		c-1.3-9-1.8-18.1-2.6-27.2c0.2-0.6,0.6-1.7,0.8-2.3c15.3-0.7,30.6-0.1,45.9-0.3c18.3,0.4,37-6.4,50-19.6
		c15.5-14.8,23.3-37.2,20.6-58.4c-2.2-19.3-12.9-37.3-28.7-48.3c-11-8.1-24.5-10.9-37.4-14.3c-0.1-9.9,2.8-19.5,2.5-29.3
		c-0.4-25.2-12.5-49.5-31-66.3c-18.3-17.4-44.3-24.5-69.1-23c-26,2.2-51.6,14.8-67.5,35.8c-6.1,7.6-9.5,17.1-15.9,24.5
		c-14.8-7.9-31.1-15.3-48.4-13c-28.1,2.6-54.7,22.3-62.8,49.9c-2.6,8.2-2.6,16.8-3.9,25.2c-0.8,2.3-3.5,2.8-5.5,3.8
		c-20.2,8.1-36.8,25.8-42.3,47.1c-5.2,19.4-1.3,41.2,10.6,57.4c12.1,16.9,32,27.6,52.7,28.3c19.8,0.3,39.6-0.2,59.4,0.2
		c3.4-0.3,2.3,3.9,2.2,5.9c-1.4,8.4-0.8,17.1-3,25.4c-16.9,0.1-33.8,0-50.7,0c-27.8,1-56.1-9.9-75.7-29.9
		c-15.4-15-25.7-35.3-28.4-56.6c-4.5-30.9,6.9-63.5,29.1-85.1C55.3,194,63,188.8,70.9,184c4.2-30.6,24.3-57.8,50.8-72.9
		c24.3-13.9,54.7-18.6,81.4-8.9C217.3,83.8,235.7,68.4,257.3,59.7z"/>
	<path class="st1" d="M236.2,289.2c2.8-0.8,5.9-2.5,8.6-0.6c26.7,13.1,57.6,14.9,86.4,9.1c2.5,42.4,5.4,84.7,8.1,127.1
		c0.1,6.2,2.5,13.1-1.3,18.6c-2.2,3.3-6.2,5.1-10.1,4.9c-44.5,0-88.9,0-133.4,0c-6,0.3-11.3-4.9-11.7-10.9
		c2.9-47.2,6.3-94.5,9.2-141.7C207,296,222.1,294,236.2,289.2 M257.4,331.1c-3.9,1.4-8.2,1.9-11.6,4.2c-10.6,6.7-11.1,25-0.2,31.7
		c6.4,4.3,14.5,3.8,21.6,5.9c4.6,1,7.2,7,3.9,10.7c-3.1,4.5-9.1,3.8-13.8,3.5c-5.2-0.3-9.2-4.5-14.3-5.1c-5.8-0.7-8.2,7.7-4.1,11.1
		c5.3,4.3,12.3,5.4,18.8,6.8c-0.1,3.9-0.4,7.8,0,11.7c0.2,3.6,6.3,3.9,6.8,0.4c0.4-4.1,0.2-8.2,0.2-12.2c5.3-1.1,11.1-2,15.2-5.8
		c7.9-6.4,8.9-19.1,3-27.2c-4.2-5.2-11-6.9-17.3-7.8c-4.3-0.8-9.4-0.9-12.5-4.5c-3.1-3.1-0.8-8.8,3.1-10.1
		c6.9-2.7,14.1,0.9,20.5,3.4c4.3-0.9,7.5-5.2,5.3-9.5c-3.9-5.3-11.3-5.7-17.2-6.9c-0.8-4.2,2.5-12.8-4-13
		C255.3,319.9,258.4,327.1,257.4,331.1z"/>
</g>
</svg>
