<svg id="Capa_1" enable-background="new 0 0 512 512" height="512" viewBox="0 0 512 512" width="512" xmlns="http://www.w3.org/2000/svg"><g><g fill="#ddebfd"><path d="m106.495 275.577h54.688v158.533h-54.688z"/><path d="m228.656 275.577h54.688v158.533h-54.688z"/><path d="m350.816 275.577h54.688v158.533h-54.688z"/></g><g fill="#bed9fd"><path d="m257.59 275.577h25.755v158.533h-25.755z"/><path d="m135.429 275.577h25.755v158.533h-25.755z"/><path d="m379.75 275.577h25.755v158.533h-25.755z"/></g><path d="m87.226 240.165v35.502c0 4.46 3.615 8.075 8.075 8.075h321.397c4.46 0 8.075-3.615 8.075-8.075v-35.502l-167.184-20z" fill="#9cd169"/><path d="m393.868 238.165v37.502c0 4.46-3.615 8.075-8.075 8.075h30.905c4.46 0 8.075-3.615 8.075-8.075v-35.502z" fill="#7dc03a"/><path d="m87.226 434.021v35.502l170.363 10 167.184-10v-35.502c0-4.46-3.615-8.075-8.075-8.075h-321.397c-4.459 0-8.075 3.615-8.075 8.075z" fill="#9cd169"/><path d="m416.699 425.946h-30.905c4.46 0 8.075 3.615 8.075 8.075v37.502l30.905-2v-35.502c0-4.46-3.616-8.075-8.075-8.075z" fill="#7dc03a"/><path d="m57.272 505.079v-28.634c0-3.823 3.099-6.921 6.921-6.921h383.612c3.823 0 6.921 3.099 6.921 6.921v28.634c0 3.823-3.099 6.922-6.921 6.922h-383.611c-3.823-.001-6.922-3.1-6.922-6.922z" fill="#4980ac"/><path d="m447.806 469.523h-30.905c3.822 0 6.921 3.099 6.921 6.921v28.634c0 3.823-3.099 6.922-6.921 6.922h30.905c3.822 0 6.921-3.099 6.921-6.922v-28.634c.001-3.823-3.098-6.921-6.921-6.921z" fill="#407194"/><path d="m249.301 65.763-188.202 155.804c-7.582 6.277-3.143 18.598 6.699 18.598h376.403c9.843 0 14.281-12.321 6.699-18.598l-188.201-155.804c-3.886-3.217-9.512-3.217-13.398 0z" fill="#4980ac"/><path d="m450.901 221.567-188.202-155.804c-3.887-3.218-9.512-3.218-13.398 0l-8.753 7.247 179.448 148.557c7.582 6.277 3.144 18.598-6.699 18.598h30.905c9.842 0 14.28-12.322 6.699-18.598z" fill="#407194"/><path d="m471.308 70.897-67.844-51.461c-3.425-2.598-8.344-.155-8.344 4.144v20.822c0 2.763-2.24 5.003-5.003 5.003h-117.733v51.274h117.732c2.763 0 5.003 2.24 5.003 5.003v20.822c0 4.299 4.919 6.742 8.344 4.144l67.844-51.461c2.744-2.084 2.744-6.209.001-8.29z" fill="#e175a5"/><path d="m40.692 70.897 67.844-51.461c3.425-2.598 8.344-.155 8.344 4.144v20.822c0 2.763 2.24 5.003 5.003 5.003h117.732v51.274h-117.731c-2.763 0-5.003 2.24-5.003 5.003v20.822c0 4.299-4.919 6.742-8.344 4.144l-67.845-51.463c-2.743-2.082-2.743-6.207 0-8.288z" fill="#e175a5"/><circle cx="256" cy="80.751" fill="#eec06b" r="80.751"/><path d="m256 0c-4.252 0-8.426.333-12.5.967 38.661 6.009 68.25 39.439 68.25 79.784s-29.59 73.776-68.25 79.784c4.074.633 8.248.967 12.5.967 44.597 0 80.751-36.153 80.751-80.751s-36.154-80.751-80.751-80.751z" fill="#e9a52d"/><path d="m266.32 74.046c-8.635-3.185-16.663-6.656-18.973-7.67-1.646-1.278-2.437-3.268-2.128-5.42.2-1.393 1.199-4.795 6.139-6.283 10.234-3.086 19.626 4.373 19.865 4.566 3.266 2.712 8.114 2.282 10.85-.973 2.745-3.267 2.323-8.14-.943-10.886-.427-.358-7.357-6.066-17.404-8.155v-5.624c0-4.267-3.459-7.726-7.726-7.726s-7.726 3.459-7.726 7.726v5.902c-.456.117-.912.236-1.372.374-9.198 2.771-15.703 10.007-16.978 18.883-1.192 8.307 2.407 16.297 9.394 20.852 2.136 1.393 17.818 7.516 21.654 8.931 3.246 1.197 10.685 4.611 9.646 10.428-.756 4.233-5.815 8.612-12.974 8.612-7.124 0-13.988-2.881-18.361-7.708-2.865-3.162-7.752-3.402-10.913-.537-3.162 2.865-3.402 7.752-.537 10.913 5.238 5.781 12.509 9.867 20.442 11.698v5.948c0 4.267 3.459 7.726 7.726 7.726s7.726-3.459 7.726-7.726v-5.454c11.326-2.158 20.221-10.215 22.104-20.756 1.655-9.272-2.601-21.403-19.511-27.641z" fill="#4980ac"/></g></svg>