<?xml version="1.0" ?><svg style="enable-background:new 0 0 64 64;" version="1.1" viewBox="0 0 64 64" xml:space="preserve" xmlns="http://www.w3.org/2000/svg" xmlns:xlink="http://www.w3.org/1999/xlink"><style type="text/css">
	.st0{fill:#0072FF;}
</style><g id="GUIDES_64"/><g id="Layer_3"/><g id="Layer_2"><path class="st0" d="M33,18h15.2c0.9,0,1.7-0.6,1.9-1.5l0,0l2-9.6C52.4,5.3,51.1,4,49.9,4H17c-2.7,0-5,2.2-5,5v49.8   c0,1.2,1.5,1.7,2.2,0.8c3.8-4.8,11.3-14.3,12.4-15.6c1.5-1.8,2-1.9,4.4-1.9h11.8c1.4,0,2.3-1.1,2.4-1.9c0.2-0.8,1.7-8.3,2-9.8l0,0   c0.2-1.2-0.7-2.3-1.9-2.3H33c-2.8,0-5-2.2-5-5S30.2,18,33,18z"/></g></svg>