<?xml version="1.0" encoding="utf-8"?>
<!-- Generator: Adobe Illustrator 23.0.3, SVG Export Plug-In . SVG Version: 6.00 Build 0)  -->
<svg version="1.2" baseProfile="tiny" id="Layer_1" xmlns="http://www.w3.org/2000/svg" xmlns:xlink="http://www.w3.org/1999/xlink"
	 x="0px" y="0px" viewBox="0 0 512 512" xml:space="preserve">
<g>
	<path fill="#D22026" d="M235.6,2.8c52.8-4.2,106.9,8.7,152.1,36.6c34.3,21,63.5,50.3,84.4,84.6c23.3,38,36.1,82.4,36.9,127
		c1,45.5-10.6,91.2-33.2,130.8c-18.1,31.9-43.3,59.6-73.1,81c-31.5,22.6-68.2,37.7-106.4,43.9c-51.2,8.5-105.1,0.8-151.8-22
		c-36-17.3-67.6-43.5-91.8-75.2C22.9,370.5,5,322.8,1.7,273.9c-3.8-52.1,9-105.3,36.3-149.9c22.2-36.5,53.7-67.2,90.7-88.4
		C161.3,16.9,198.1,5.6,235.6,2.8"/>
	<path fill="#D22026" d="M225.2,152.2c13-0.1,25.9-0.3,38.8,0.1c10.8,0.9,22.1,0.3,32.3,4.4c10.6,4.8,17.9,15.1,20.8,26.2
		c3.2,12.5,2.4,26.3-3.2,38c-4.6,8.8-12.3,16.4-22.1,19c-11.6,3.2-23.8,3-35.8,3.3c-10.3-0.2-20.7,0.3-31-0.3
		C225.2,212.8,225,182.5,225.2,152.2z"/>
</g>
<g>
	<path fill="#FFFFFF" d="M137.3,60.9c52.9,0.5,105.8-0.7,158.7,0.9c17.6,1.3,36.1,1.7,52,9.5c27.9,13.2,46.3,39.2,53.7,66.4
		c3.8,13.9,5.5,28.2,5.1,42.5c0.7,23.2-3.4,46.9-14.7,67.9c-10.1,18-24.8,34.7-45,43.9c-13.5,6-28.5,8.5-43.3,9.8
		c-31.5,3.8-63.5,1.5-95.1,2.5c-0.9,2.5-0.3,5.3-0.5,7.9c0,46.4,0.1,92.8,0,139.1c-23.6,0-47.3,0-70.9,0
		C137.3,321,137.2,191,137.3,60.9 M208.3,127.2c-0.2,36.6,0.1,73.2-0.1,109.8c13.7,0.6,27.5,0,41.3,0.3c16-0.4,32.2-0.1,47.7-4
		c13-3.2,23.2-12.4,29.4-23c7.5-14.2,8.6-30.8,4.3-46c-3.9-13.4-13.6-25.8-27.7-31.7c-13.7-5-28.6-4.3-43.1-5.4
		C242.8,126.9,225.5,127.1,208.3,127.2z"/>
</g>
</svg>
