<?xml version="1.0" encoding="UTF-8" ?>
<!DOCTYPE svg PUBLIC "-//W3C//DTD SVG 1.1//EN" "http://www.w3.org/Graphics/SVG/1.1/DTD/svg11.dtd">
<svg width="400pt" height="400pt" viewBox="0 0 400 400" version="1.1" xmlns="http://www.w3.org/2000/svg">
<g id="#2aa0d7ff">
<path fill="#2aa0d7" opacity="1.00" d=" M 182.19 0.00 L 231.57 0.00 C 264.56 1.34 298.13 10.15 324.84 30.16 C 346.18 45.98 362.10 69.11 368.42 94.97 C 375.80 125.09 371.60 157.62 358.28 185.49 C 349.06 204.73 335.42 221.73 319.05 235.35 C 325.55 252.96 332.09 270.55 338.63 288.15 C 341.18 294.83 343.89 301.48 347.16 307.85 C 348.10 309.82 349.77 311.27 351.47 312.59 C 361.54 320.47 367.64 333.18 367.50 345.97 C 367.66 361.27 358.82 376.16 345.39 383.43 C 324.80 394.45 301.31 398.32 278.27 400.00 L 258.90 400.00 C 250.93 399.35 242.99 397.97 235.38 395.48 C 218.46 390.04 203.53 379.03 192.93 364.82 C 188.52 373.67 181.15 381.00 172.10 385.05 C 152.90 393.75 131.85 397.58 110.94 399.04 C 96.40 400.27 81.28 400.02 67.59 394.42 C 54.11 389.13 42.70 378.79 36.20 365.83 C 27.14 348.42 26.65 327.95 29.55 308.91 C 39.04 247.63 48.62 186.35 58.10 125.07 C 60.10 112.14 62.31 99.24 63.79 86.24 C 65.31 73.56 64.87 60.75 64.64 48.01 C 64.07 27.09 81.17 7.78 101.90 5.48 C 105.90 4.86 109.94 5.41 113.96 5.11 C 136.57 2.08 159.38 0.53 182.19 0.00 M 154.01 44.09 C 138.78 45.27 123.42 46.26 108.49 49.64 C 108.21 49.08 107.66 47.98 107.39 47.43 C 107.81 57.59 107.80 67.77 107.43 77.93 C 106.50 94.75 103.48 111.35 100.99 127.98 C 91.25 190.51 81.56 253.05 71.85 315.59 C 70.63 324.96 69.80 334.87 73.15 343.91 C 75.05 349.20 79.39 353.47 84.74 355.20 C 91.93 357.54 99.61 356.74 107.02 356.43 C 123.11 355.21 139.47 352.84 154.27 346.11 C 149.62 336.34 151.81 325.25 152.99 314.97 C 156.74 290.33 160.72 265.74 164.68 241.14 C 172.69 241.29 180.70 241.08 188.71 241.25 C 196.51 264.01 204.52 286.70 212.40 309.44 C 214.95 317.21 217.95 324.89 222.12 331.96 C 227.53 341.20 235.31 349.45 245.34 353.62 C 255.26 357.99 266.36 357.58 276.95 357.09 C 293.27 356.02 309.85 353.37 324.64 346.05 C 319.24 341.92 314.47 336.94 311.13 330.99 C 302.58 316.12 297.39 299.68 291.30 283.73 C 283.27 262.10 275.30 240.45 267.20 218.84 C 289.16 207.36 308.66 189.97 319.53 167.41 C 328.10 149.51 331.39 128.87 327.78 109.28 C 324.42 91.25 313.70 74.93 298.89 64.20 C 278.58 49.18 252.90 43.54 228.04 42.69 C 203.36 42.65 178.64 42.16 154.01 44.09 Z" />
<path fill="#2aa0d7" opacity="1.00" d=" M 183.93 119.06 C 185.73 109.31 186.21 99.34 188.71 89.73 C 200.85 90.10 213.90 87.96 225.09 93.91 C 236.29 99.53 242.74 111.70 244.29 123.78 C 246.09 139.17 243.91 155.40 236.23 169.03 C 230.67 178.97 221.85 187.20 211.12 191.23 C 198.53 196.18 184.77 193.65 171.61 194.29 C 175.63 169.20 179.83 144.13 183.93 119.06 Z" />
</g>
<g id="#ffffffff">
<path fill="#ffffff" opacity="1.00" d=" M 154.01 44.09 C 178.64 42.16 203.36 42.65 228.04 42.69 C 252.90 43.54 278.58 49.18 298.89 64.20 C 313.70 74.93 324.42 91.25 327.78 109.28 C 331.39 128.87 328.10 149.51 319.53 167.41 C 308.66 189.97 289.16 207.36 267.20 218.84 C 275.30 240.45 283.27 262.10 291.30 283.73 C 297.39 299.68 302.58 316.12 311.13 330.99 C 314.47 336.94 319.24 341.92 324.64 346.05 C 309.85 353.37 293.27 356.02 276.95 357.09 C 266.36 357.58 255.26 357.99 245.34 353.62 C 235.31 349.45 227.53 341.20 222.12 331.96 C 217.95 324.89 214.95 317.21 212.40 309.44 C 204.52 286.70 196.51 264.01 188.71 241.25 C 180.70 241.08 172.69 241.29 164.68 241.14 C 160.72 265.74 156.74 290.33 152.99 314.97 C 151.81 325.25 149.62 336.34 154.27 346.11 C 139.47 352.84 123.11 355.21 107.02 356.43 C 99.61 356.74 91.93 357.54 84.74 355.20 C 79.39 353.47 75.05 349.20 73.15 343.91 C 69.80 334.87 70.63 324.96 71.85 315.59 C 81.56 253.05 91.25 190.51 100.99 127.98 C 103.48 111.35 106.50 94.75 107.43 77.93 C 107.80 67.77 107.81 57.59 107.39 47.43 C 107.66 47.98 108.21 49.08 108.49 49.64 C 123.42 46.26 138.78 45.27 154.01 44.09 M 183.93 119.06 C 179.83 144.13 175.63 169.20 171.61 194.29 C 184.77 193.65 198.53 196.18 211.12 191.23 C 221.85 187.20 230.67 178.97 236.23 169.03 C 243.91 155.40 246.09 139.17 244.29 123.78 C 242.74 111.70 236.29 99.53 225.09 93.91 C 213.90 87.96 200.85 90.10 188.71 89.73 C 186.21 99.34 185.73 109.31 183.93 119.06 Z" />
</g>
</svg>
